<svg clip-rule="evenodd" fill-rule="evenodd" stroke-linecap="round" stroke-linejoin="round" stroke-miterlimit="1.5" viewBox="0 0 350 60" xmlns="http://www.w3.org/2000/svg"><path d="m25 46h300v-32h-300zm8-26h18c.5 0 1 .4 1 1s-.4 1-1 1h-18c-.5 0-1-.4-1-1s.4-1 1-1zm0 6h18c.5 0 1 .4 1 1 0 .5-.4 1-1 1h-18c-.5 0-1-.4-1-1s.4-1 1-1zm0 6h18c.5 0 1 .4 1 1s-.4 1-1 1h-18c-.5 0-1-.4-1-1s.4-1 1-1zm0 6h18c.5 0 1 .4 1 1s-.4 1-1 1h-18c-.5 0-1-.4-1-1s.4-1 1-1z" fill="#766d57" fill-rule="nonzero"/><path d="m0 0v60h350v-60zm327 46c0 1.1-.9 2-2 2h-300c-1.1 0-2-.9-2-2v-32c0-1.1.9-2 2-2h300c1.1 0 2 .9 2 2z" fill="#766d57" fill-rule="nonzero"/><g fill="none" stroke-width="2"><path d="m102.796 25.106c0-2.701-2.193-4.894-4.894-4.894h-27.756c-2.701 0-4.894 2.193-4.894 4.894v9.788c0 2.701 2.193 4.894 4.894 4.894h27.756c2.701 0 4.894-2.193 4.894-4.894z" stroke="#32af32"/><path d="m138.82 25.106c0-2.701-2.193-4.894-4.894-4.894h-11.987c-2.701 0-4.894 2.193-4.894 4.894v9.788c0 2.701 2.193 4.894 4.894 4.894h11.987c2.701 0 4.894-2.193 4.894-4.894z" stroke="#fff"/><path d="m210.542 25.106c0-2.701-2.193-4.894-4.894-4.894h-47.685c-2.701 0-4.894 2.193-4.894 4.894v9.788c0 2.701 2.193 4.894 4.894 4.894h47.685c2.701 0 4.894-2.193 4.894-4.894z" stroke="#fff"/><path d="m268.96 25.106c0-2.701-2.193-4.894-4.894-4.894h-34.381c-2.701 0-4.894 2.193-4.894 4.894v9.788c0 2.701 2.193 4.894 4.894 4.894h34.381c2.701 0 4.894-2.193 4.894-4.894z" stroke="#fff"/><path d="m314.341 25.106c0-2.701-2.193-4.894-4.894-4.894h-21.343c-2.702 0-4.894 2.193-4.894 4.894v9.788c0 2.701 2.192 4.894 4.894 4.894h21.343c2.701 0 4.894-2.193 4.894-4.894z" stroke="#e34234"/></g></svg>