<?xml version="1.0" encoding="utf-8"?>
<!-- Generator: Adobe Illustrator 26.5.3, SVG Export Plug-In . SVG Version: 6.00 Build 0)  -->
<svg version="1.1" id="Ebene_1" xmlns="http://www.w3.org/2000/svg" xmlns:xlink="http://www.w3.org/1999/xlink" x="0px" y="0px"
	 viewBox="0 0 300 300" style="enable-background:new 0 0 300 300;" xml:space="preserve">
<style type="text/css">
	.st0{fill:#373939;}
</style>
<g id="Gruppe_98_00000166640709818604478980000011792398253085392028_" transform="translate(0.633 0.606)">
	<g id="Gruppe_4_00000143583929714163590800000013326385460661438126_" transform="translate(0)">
		<g id="Pfad_8_00000082348994218054508620000001622319346184957568_">
			<path class="st0" d="M146.6,252.8l-2.9-1.6C34.5,191.7,29.6,132.3,32.6,109.5c3.5-27.1,22.2-48.6,47.7-54.9
				c24.7-6.1,49.4,3.9,66.4,26.7c16.6-22.7,41.4-32.8,66.2-26.7c25.5,6.3,44.2,27.8,47.7,54.9c3,22.8-2,82.2-111.1,141.7
				L146.6,252.8z M94.4,64.9c-3.7,0-7.5,0.5-11.2,1.4c-20.6,5.1-35.8,22.7-38.7,44.8c-2.6,20.1,2.2,72.7,102.1,128.1
				c99.9-55.4,104.7-107.9,102.1-128.1c-2.9-22.2-18-39.8-38.7-44.8c-20.5-5.1-41.1,3.9-55.2,24c-0.6,1-1.6,1.9-2.8,2.7
				c-2.2,1.5-4.9,2-7.5,1.4c-2.6-0.5-4.9-2.1-6.3-4.3C126.8,73.8,110.9,64.9,94.4,64.9z M148.1,83.3
				C148.1,83.3,148.1,83.3,148.1,83.3C148.1,83.3,148.1,83.3,148.1,83.3z"/>
		</g>
	</g>
</g>
</svg>
