<?xml version="1.0" encoding="utf-8"?>
<!-- Generator: Adobe Illustrator 26.5.3, SVG Export Plug-In . SVG Version: 6.00 Build 0)  -->
<svg version="1.1" id="Ebene_1" xmlns="http://www.w3.org/2000/svg" xmlns:xlink="http://www.w3.org/1999/xlink" x="0px" y="0px"
	 viewBox="0 0 300 300" style="enable-background:new 0 0 300 300;" xml:space="preserve">
<style type="text/css">
	.st0{fill:#373939;}
</style>
<path class="st0" d="M252.7,238.1l-47.9-47.9c0,0-0.1-0.1-0.1-0.1c11.6-14.8,18.5-33.5,18.5-53.7c0-48.1-39.2-87.3-87.3-87.3
	c-48.1,0-87.3,39.1-87.3,87.3s39.2,87.3,87.3,87.3c23.3,0,44.4-9.1,60.1-24l47.6,47.6c1.3,1.3,2.9,1.9,4.5,1.9
	c1.6,0,3.3-0.6,4.6-1.9C255.2,244.7,255.2,240.6,252.7,238.1z M135.9,210.8c-41,0-74.4-33.4-74.4-74.4c0-41,33.4-74.4,74.4-74.4
	s74.4,33.4,74.4,74.4C210.3,177.4,177,210.8,135.9,210.8z"/>
</svg>
