<?xml version="1.0" encoding="utf-8"?>
<!-- Generator: Adobe Illustrator 26.5.3, SVG Export Plug-In . SVG Version: 6.00 Build 0)  -->
<svg version="1.1" id="Ebene_1" xmlns="http://www.w3.org/2000/svg" xmlns:xlink="http://www.w3.org/1999/xlink" x="0px" y="0px"
	 viewBox="0 0 300 300" style="enable-background:new 0 0 300 300;" xml:space="preserve">
<style type="text/css">
	.st0{fill:#373939;}
</style>
<path class="st0" d="M194.8,86.9c-1.1-10.3-5.7-19.8-13.1-27.2c-8.6-8.6-19.8-13.5-32.2-13.2c-23.3,0.1-42.5,17.8-45.1,40.4H58.5
	v141.7c0,9.9,8,17.9,17.9,17.9h146.5c9.9,0,17.9-8,17.9-17.9V86.9H194.8z M149.5,57.1L149.5,57.1c9.1,0.1,18.1,3.6,24.7,10.1
	c5.3,5.3,8.7,12,9.9,19.3l-68.9,0.2C117.7,70,132.1,57.2,149.5,57.1z M230.1,228.6c0,4-3.2,7.3-7.2,7.3H76.4c-4,0-7.2-3.3-7.2-7.3
	v-131h161V228.6z"/>
</svg>
