<?xml version="1.0" encoding="utf-8"?>
<!-- Generator: Adobe Illustrator 26.5.3, SVG Export Plug-In . SVG Version: 6.00 Build 0)  -->
<svg version="1.1" id="Ebene_1" xmlns="http://www.w3.org/2000/svg" xmlns:xlink="http://www.w3.org/1999/xlink" x="0px" y="0px"
	 viewBox="0 0 300 300" style="enable-background:new 0 0 300 300;" xml:space="preserve">
<style type="text/css">
	.st0{fill:#373939;}
</style>
<path class="st0" d="M250.4,239.6c-9.6-35.7-38.2-62-72.9-69.6c19.6-9.1,33.2-29,33.2-52c0-31.6-25.7-57.3-57.3-57.3
	c-31.6,0-57.3,25.7-57.3,57.3c0,23.3,14,43.4,34.1,52.4c-34.5,8.1-63,34.2-73.7,69l-2.1,7h198L250.4,239.6z M106,118.1
	c0-26.1,21.2-47.3,47.3-47.3c26.1,0,47.3,21.2,47.3,47.3c0,26.1-21.2,47.3-47.3,47.3C127.3,165.4,106,144.2,106,118.1z M69.2,235.6
	c13.6-34,47.1-57,84.3-57c0.4,0,0.9,0,1.3,0c37.2-0.6,70.6,22.3,83,56.9H69.2z"/>
</svg>
