<?xml version="1.0" encoding="utf-8"?>
<!-- Generator: Adobe Illustrator 26.5.3, SVG Export Plug-In . SVG Version: 6.00 Build 0)  -->
<svg version="1.1" id="Ebene_1" xmlns="http://www.w3.org/2000/svg" xmlns:xlink="http://www.w3.org/1999/xlink" x="0px" y="0px"
	 viewBox="0 0 300 300" style="enable-background:new 0 0 300 300;" xml:space="preserve">
<style type="text/css">
	.st0{fill:#B61F29;}
</style>
<g id="Pfad_51_00000140723122122265746030000004128367586844552895_">
	<path class="st0" d="M165.6,254.2c-68.2,0-123.7-55.5-123.7-123.7c0-32.3,12.6-55.9,37.4-70.1c20.1-11.5,48.3-17.2,86.3-17.2
		c36.5,0,56.7,5.2,69.7,18c13.2,12.9,18.5,33,18.5,69.3c0,37.8-5.8,66.1-17.6,86.3C221.6,241.6,197.9,254.2,165.6,254.2z
		 M165.6,54.2c-36,0-62.4,5.1-80.8,15.7C63.3,82.2,52.9,102,52.9,130.5c0,62.1,50.6,112.7,112.7,112.7c52.7,0,77.2-35.8,77.2-112.7
		c0-32.6-4.6-51-15.2-61.5C216.9,58.6,198.4,54.2,165.6,54.2z"/>
</g>
</svg>
